<svg width="134" height="37" viewBox="0 0 134 37" fill="none" xmlns="http://www.w3.org/2000/svg">
<path d="M0.292969 35.7559L6.49414 1.40527C6.52669 1.27507 6.60807 1.20996 6.73828 1.20996H13.9893C14.1195 1.20996 14.2008 1.27507 14.2334 1.40527L20.1904 35.7559C20.2067 35.9186 20.1416 36 19.9951 36H14.4531C14.2904 36 14.2008 35.9186 14.1846 35.7559L13.6475 32.0938H6.83594L6.29883 35.7559C6.28255 35.9186 6.20117 36 6.05469 36H0.488281C0.358073 36 0.292969 35.9186 0.292969 35.7559ZM10.083 12.709L7.83691 26.7471H12.6465L10.5957 12.709L10.3027 10.8535L10.083 12.709ZM31.4941 36.4883C29.7363 36.4883 28.1087 36.0326 26.6113 35.1211C25.1139 34.2096 23.9176 32.9889 23.0225 31.459C22.1436 29.9128 21.7041 28.2282 21.7041 26.4053L21.8018 1.40527C21.8018 1.27507 21.8669 1.20996 21.9971 1.20996H27.6123C27.7425 1.20996 27.8076 1.27507 27.8076 1.40527V26.4053C27.8076 27.5283 28.1657 28.4886 28.8818 29.2861C29.598 30.0674 30.4688 30.458 31.4941 30.458C32.5684 30.458 33.4635 30.0674 34.1797 29.2861C34.8958 28.4886 35.2539 27.5283 35.2539 26.4053V1.40527C35.2539 1.27507 35.319 1.20996 35.4492 1.20996H41.0645C41.1947 1.20996 41.2598 1.27507 41.2598 1.40527L41.3574 26.4053C41.3574 28.2445 40.918 29.9372 40.0391 31.4834C39.1439 33.0133 37.9557 34.234 36.4746 35.1455C34.9935 36.0407 33.3333 36.4883 31.4941 36.4883ZM51.1475 36H45.4834C45.3532 36 45.2881 35.9186 45.2881 35.7559L45.3857 1.40527C45.3857 1.27507 45.4508 1.20996 45.5811 1.20996H55.6885C57.4951 1.20996 59.1553 1.64941 60.6689 2.52832C62.1826 3.40723 63.387 4.58724 64.2822 6.06836C65.1937 7.54948 65.6494 9.22591 65.6494 11.0977C65.6494 12.3184 65.4622 13.4251 65.0879 14.418C64.7135 15.4108 64.2741 16.249 63.7695 16.9326C63.2812 17.6162 62.8337 18.1208 62.4268 18.4463C64.2334 20.4482 65.1367 22.8001 65.1367 25.502L65.1855 35.7559C65.1855 35.9186 65.1042 36 64.9414 36H59.2773C59.1471 36 59.082 35.9512 59.082 35.8535V25.502C59.082 24.2975 58.6589 23.2559 57.8125 22.377C56.9661 21.498 55.9245 21.0586 54.6875 21.0586H51.3916L51.3428 35.7559C51.3428 35.9186 51.2777 36 51.1475 36ZM55.6885 7.19141H51.3916V15.0527H55.6885C56.7139 15.0527 57.6253 14.6702 58.4229 13.9053C59.2367 13.1403 59.6436 12.2044 59.6436 11.0977C59.6436 10.0397 59.2529 9.12826 58.4717 8.36328C57.6904 7.58203 56.7627 7.19141 55.6885 7.19141ZM78.6621 36.4883C76.888 36.4883 75.2523 36.0326 73.7549 35.1211C72.2738 34.2096 71.0775 32.9971 70.166 31.4834C69.2708 29.9535 68.8232 28.277 68.8232 26.4541L68.8721 10.6094C68.8721 8.75391 69.3197 7.08561 70.2148 5.60449C71.0938 4.1071 72.2819 2.91081 73.7793 2.01562C75.2767 1.10417 76.9043 0.648438 78.6621 0.648438C80.485 0.648438 82.1208 1.09603 83.5693 1.99121C85.0342 2.88639 86.2061 4.09082 87.085 5.60449C87.9801 7.10189 88.4277 8.77018 88.4277 10.6094L88.4766 26.4541C88.4766 28.277 88.0371 29.9453 87.1582 31.459C86.263 32.9889 85.0749 34.2096 83.5938 35.1211C82.1126 36.0326 80.4688 36.4883 78.6621 36.4883ZM78.6621 30.458C79.6712 30.458 80.5501 30.0511 81.2988 29.2373C82.0475 28.4072 82.4219 27.4795 82.4219 26.4541L82.373 10.6094C82.373 9.5026 82.0231 8.56673 81.3232 7.80176C80.6234 7.03678 79.7363 6.6543 78.6621 6.6543C77.6367 6.6543 76.7578 7.02865 76.0254 7.77734C75.293 8.52604 74.9268 9.47005 74.9268 10.6094V26.4541C74.9268 27.5446 75.293 28.4886 76.0254 29.2861C76.7578 30.0674 77.6367 30.458 78.6621 30.458ZM98.1201 36H92.4561C92.3258 36 92.2607 35.9186 92.2607 35.7559L92.3584 1.40527C92.3584 1.27507 92.4235 1.20996 92.5537 1.20996H102.661C104.468 1.20996 106.128 1.64941 107.642 2.52832C109.155 3.40723 110.36 4.58724 111.255 6.06836C112.166 7.54948 112.622 9.22591 112.622 11.0977C112.622 12.3184 112.435 13.4251 112.061 14.418C111.686 15.4108 111.247 16.249 110.742 16.9326C110.254 17.6162 109.806 18.1208 109.399 18.4463C111.206 20.4482 112.109 22.8001 112.109 25.502L112.158 35.7559C112.158 35.9186 112.077 36 111.914 36H106.25C106.12 36 106.055 35.9512 106.055 35.8535V25.502C106.055 24.2975 105.632 23.2559 104.785 22.377C103.939 21.498 102.897 21.0586 101.66 21.0586H98.3643L98.3154 35.7559C98.3154 35.9186 98.2503 36 98.1201 36ZM102.661 7.19141H98.3643V15.0527H102.661C103.687 15.0527 104.598 14.6702 105.396 13.9053C106.209 13.1403 106.616 12.2044 106.616 11.0977C106.616 10.0397 106.226 9.12826 105.444 8.36328C104.663 7.58203 103.735 7.19141 102.661 7.19141ZM113.672 35.7559L119.873 1.40527C119.906 1.27507 119.987 1.20996 120.117 1.20996H127.368C127.498 1.20996 127.58 1.27507 127.612 1.40527L133.569 35.7559C133.586 35.9186 133.521 36 133.374 36H127.832C127.669 36 127.58 35.9186 127.563 35.7559L127.026 32.0938H120.215L119.678 35.7559C119.661 35.9186 119.58 36 119.434 36H113.867C113.737 36 113.672 35.9186 113.672 35.7559ZM123.462 12.709L121.216 26.7471H126.025L123.975 12.709L123.682 10.8535L123.462 12.709Z" fill="white"/>
</svg>
